<svg id="Layer_1" data-name="Layer 1" xmlns="http://www.w3.org/2000/svg" viewBox="0 0 3633.1 3633.1"><defs><style>.cls-1{fill:#fff;fill-rule:evenodd;}</style></defs><path class="cls-1" d="M2500.07,683.29c1003.26,0,1816.56,813.32,1816.56,1816.55s-813.3,1816.55-1816.56,1816.55S683.52,3503.1,683.52,2499.84,1496.8,683.29,2500.07,683.29ZM915.43,1889.21c-73.11,189.5-113.22,395.37-113.22,610.63,0,937.74,760.15,1697.93,1697.86,1697.93,520.53,0,986.3-234.39,1297.74-603.23l-13.41-.87c-12.45-56.3,10.56-90.63-18.88-136.52-26.7-41.64-50-44.45-50.83-105.42-.29-23.24,3.31-61.48.62-82.85-7.63-60.6-93.11-57.38-37.46-161,58-108,62.1-61.72-17.5-202-71.44-125.93-51.94-85.9-41.78-244.73-197.18-8.43-110.5-80-212.94-47.84-48.56,15.23-1.73,32.57-100.2,30.91-22.79-.37-41.62-1.12-63.85,2.35-13.27,2-29,7.75-51.76,7.77-57.25,0-83.2-57.11-140.91-122.16-79.35-89.4-55.86-49.84-55.55-198.93,7.87-39.07,21.19,17,34.08-65.67-23.32-20.73-39.88,1.13-49.91-75.15,30-15.33,69.54-48.64,99.87-70.59,101.16-73.23,90.17-34.45,92-158,109.57-93.07,130.22-23.4,219.22-56.59,84.85-31.7,123.29-40.21,242.73-38.56l3.54,95.15c2.51,1.28,202.42,62.72,204.13,62.81l2.36-52.09c97.09-16.56,89-5.67,148.8,35.23,30.1,20.63,93.83,22.22,141.29,18.24q-21.33-73.9-49.09-145l-63.67-1c-35.29-57.84-38-26.45-47.93-123.36-87.81,34.48-32.66,66.21-76.7,113.7-134.55-116.87,15.88-70.06-131.13-193.82-32.48-27.37-37.57-18.33-92-18.33,19,77.57,28.72,73.09,121.31,119.37-14.91,43.57-12.37,22.13-13.76,75.07-56.51,23.67-76,29-101.38-19.62,40.53-4.3,41.7,7,68.31-13.48C3740,1802,3730.48,1799.31,3712,1787c-109.28-73.2-61.45-34.2-110.47-99.84-12.2,10.16-33.89,37.11-45.84,41-24.89,8.18-30.15-9.59-66.71.88-6.82,4.36-76.32,91.57-93.34,144.63-35.87,1.29-69,6.53-106.84,5.21-138.19-4.77-77.62-156.2-72.26-161.29,59.72-28.68,107.47-14.85,167.69-3.47l10.65-37.58-35.11-24.68,13-71.73c104.05-10.74,85-5.26,131.19-74.26,38.62-57.59,94-29.3,163.51-28.28l-8.66-80.93-74.22,25.7c-28.44-83-16-37.15-65.05-74.14-7.24-41.06,9.15-60.65,44.13-78.11,40-19.94,57-12.33,69.32-34.8C3332.46,965.89,2935.43,802,2500.07,802c-356.78,0-687.74,110.09-961,298.09,28.41,2,44,5.36,82.08,20,16.36,6.24,40.28,8.37,52.29,12.79,43.63,16.14,2.13-8.59,31.12,33.89l106,2c-14.07-46.2-35-42.57-114.92-33.39,15.55-24.66,25.08-21.44,14.11-54.69l-83.71-.25,37.5-36.25c57.11-41.47,77.45-40.3,155.92-39.43,14.33,22.47,28.93,39.49,41.82,63.45,154,8.62,78-65.86,155.36-25.17-38,63.64-67.23,64.26-140.13,65.48l3.48,57.21c90.38,8.47,100.38,9.28,118.31-29.6l71.63-5.32c14.17-54.14-29.28-39.59-28.08-61.59,3-54.59,115.33-33.86,149.52-28.1-12.31,22.07-33,38.09-54.26,50.19l7.66,43.57c22.4,12.39,37.92,14.81,67.1,17.25l-3.66-80c179-92.07,185.32-21.63,335.11,23.48l2.1,61.41,48.31,20-22.48,46c-57.24,1.16-76.2-7.87-92.66,54.86-52.33-7.81-128.66-17.61-166.05-42.25l120.28-67.87c-44.77-49.37-41.94-44.58-128.56-31.45-77,11.67-22.85,51.76-125.49,53.21,7.65,47.49-5.2-8.66,4.17,15.33l18.34,30.53c-91.16,9.14-6.93,33.82-89.88,31.31l-12.79-46.95c-104.29,29.64-134.39,65.08-221.72,105.38,3,45.2,8.28,68.16,43.32,86.81,92.17,48.93,98.56-36.33,98.56,115.85,62.67-2.34,44.4-29.39,69.16-67,16.52-25,63.2-29.06,98.64-42.73l2-119.91c90.7-40.68-10.93-41.55,172.79-6l-7.08,79.38c53.73-.78,74.48-27.46,123.16-42.57,1.63,36.61-7.49,87.49,21.89,111l45.61,31.57c4.3,104.85-46.18,38.77-35.21,96.84,9.43,50,63.27-4.93,45.83,80.53-27.49-.54-96.24-17.75-116.42-37.87-4.61-67.75,26.18,4.85,20.88-73-53.14-1.44-3.27-4.86-30.32,9.82-24.26,13.2-8.65,17.34-76.61,20.66-31.35-37.43-38.66-50.19-90.72-25.27l-.16,26.74c15.77,13.48,37.56,15,55.67,25l-22.78,31.27c-48.5-32.87-68-9.82-102.27,30.31-1.13,1.34-2.65,3.19-3.76,4.6l-19.77,29.09c-29.85,29.66-93.24,46.24-141.23,96.4-116.71,122-34.38,93.85-99.87,138.34-64.83,44-81.38,57.48-131.66,104.76l5.29,102.36-71.62-30.39-1.13-64.6c-166.31-1.57-293.58-21.86-357,144.3-21.36,55.92-9.31,82.85,16.6,123.09,139.17,20.5,99.16-26.49,209.23-72.22,26.33,50.4-4.05,63.45-23.63,115.33l97.8,17.94,9.74,154.29,130.69,23.26c23.52-16.19,71.51-73,85.18-98.69,80.06,6,104.48,7.91,151.69,70.72l95.8-.9,17.9-30.66c36.89,24.88,37.37,9,64,49.71,17.23,26.3,30.58,48.62,41.78,73.58l108.78,2.28c46,49.89,45.45,81.89,50.62,158.19,38.47,11.38,75.74,31.62,113.11,42,42,11.66,100.71,5,148.18,5.3,34.48,17.14,27.27,41.23,52.07,65.89,22.82,22.67,44.61,13.2,69.15,35.68-18.36,75-22.1,65.52-62.54,116-63.47,79.28-.5,204.82-78.72,266.11-54.23,42.51-59.09,22-134,22.25-89.31,156.75,79.93,63.46-94.23,275-36.84,44.7-35,80.85-90.61,106.44-128.26,58.95-122.38,22.63-137.42,59.64,11.72,20.29,26.62,14.45,42.88,32.83-10.69,47.11-23.29,30-42.67,65.68,23.36,40.36,13.93,29,76,32.69L2267,3999.56c24.48,31.57,77.93,44.11,64.51,93.38-134.7,40-215.67-99.9-269.91-195.7-41.78-73.79,25.18-135.54-25.38-196.65-49.94-60.31-39.78-87.9-14.86-177.67-26.74-29.38-22.86.72-35.49-32.29l.66-279.09c-43.8-41.35-83.41-73.45-158.25-91.45-18.21-130.53-148.56-171.12-132.62-252.7,8.49-43.32,9-74.67,10.22-122.88,24.51-16.55,62.34-45.26,91.13-57.92L1785.15,2573c-27.84-.53-105.3-1.63-126.9-11.66-59.09-27.37-70-106.74-152.75-127.3-31.2-7.74-61.76-6.87-73-34.65l-7.06-26.64c-81.37-11.16-22,2.07-64.67,14.79-42.79-15.85-118-17.39-144.76-49.93-73.61-89.38-37.27-75.11-33.41-120.6,1.69-20.15-56.63-95.89-72.67-118.3-40.32-56.37,3.17-125.68-62.07-126.15-16.46,32.54,5.92,101.35,25.3,129.87,29.68,43.64,44.86,48.81,40.27,109.34-79.18-3.65-70.27-26.45-105.33-85.25-76.7-128.88,59.16-149.22-93.63-208.1.06-9.71.56-19.59.91-29.25Zm1324.86-210.94c-15.23,17.33-10.37-3.13-9.35,30.1,47.85,3.19,26.28,1.31,38.32-13l2.25-20.27-15-6.62-10.1,0-6.08,9.78Zm6.08-9.78c-12.32-.84-9-3.07-6.08,9.78l-4.95,24.52,33.92-7.44-22.89-26.86Zm58.18-.13c16.65,79.54,70.94-1.37,71.23-1.62,24.67-23.1,8.65,15,25.07-23-1.31-.75-1.66-10.1-23-8-24.85,2.45-11.31,14.55-41.87,24.42-22.23,7.22-6.47-6.17-31.39,8.24Zm902-136.14c50,1.23,44.1.66,78.21-24,33.64-24.2,45.24-20.44,32.26-66.1-68.77-33.58-109.71,24.76-110.47,90Zm117,21.79c100.23,11.6,118.15-2.44,146.39-41.59l-63-60.7c-25.83-39-18-60.82-36.09-95.76-77.83,4.32-97.89,48.77-34.6,84.29,69.16,38.84,18.75,47.18,18.75,47.18-22.67,16.71-13.23-10.09-27.43,22.88C3323.8,1519.12,3323.93,1542.57,3323.61,1554Z" transform="translate(-683.52 -683.29)"/></svg>